<svg xmlns="http://www.w3.org/2000/svg" viewBox="0 0 64 64" role="img" aria-label="ตำหนักผู่โถวเจ้าแม่กวนอิม">
  <defs>
    <linearGradient id="bg" x1="0" y1="0" x2="0" y2="1">
      <stop offset="0%" stop-color="#2A1015"/><stop offset="100%" stop-color="#0F0608"/>
    </linearGradient>
    <linearGradient id="foil" x1="0" y1="0" x2="1" y2="0.4">
      <stop offset="0%" stop-color="#8A6A1E"/><stop offset="24%" stop-color="#D8A93F"/>
      <stop offset="42%" stop-color="#FBF3C4"/><stop offset="62%" stop-color="#C99B34"/>
      <stop offset="82%" stop-color="#F2DCA6"/><stop offset="100%" stop-color="#A87F22"/>
    </linearGradient>
  </defs>
  <rect width="64" height="64" rx="7" fill="url(#bg)"/>
  <rect x="4.5" y="4.5" width="55" height="55" rx="4.5" fill="none" stroke="#F2DCA6" stroke-width="1" opacity=".38"/>
  <g fill="none" stroke="url(#foil)" stroke-width="2.9" stroke-linecap="round" stroke-linejoin="round">
    <path d="M32 14c5 6 5 13.5 0 19.5-5-6-5-13.5 0-19.5Z"/>
    <path d="M32 33.5c-4.5-5.5-11-7.5-16-6 1.5 6 7 10.5 16 11Z"/>
    <path d="M32 33.5c4.5-5.5 11-7.5 16-6-1.5 6-7 10.5-16 11Z"/>
  </g>
  <path d="M17 48h30" stroke="url(#foil)" stroke-width="2.6" stroke-linecap="round"/>
</svg>
